<?xml version="1.0" encoding="UTF-8"?><svg id="_レイヤー_1" xmlns="http://www.w3.org/2000/svg" width="1350mm" height="154.52mm" viewBox="0 0 3826.77 438.02"><defs><style>.cls-1{fill:#a6b95f;stroke-width:0px;}</style></defs><rect class="cls-1" x="3652.21" y="102.82" width="117.22" height="2.7"/><rect class="cls-1" x="3668.79" y="125.83" width="22.38" height="28.68" rx="4.11" ry="4.11"/><rect class="cls-1" x="3699.63" y="125.83" width="22.38" height="28.68" rx="4.11" ry="4.11"/><rect class="cls-1" x="3730.47" y="125.83" width="22.38" height="28.68" rx="4.11" ry="4.11"/><rect class="cls-1" x="3668.79" y="170.49" width="22.38" height="28.68" rx="4.11" ry="4.11"/><rect class="cls-1" x="3699.63" y="170.49" width="22.38" height="28.68" rx="4.11" ry="4.11"/><rect class="cls-1" x="3730.47" y="170.49" width="22.38" height="28.68" rx="4.11" ry="4.11"/><rect class="cls-1" x="3668.79" y="215.15" width="22.38" height="28.68" rx="4.11" ry="4.11"/><rect class="cls-1" x="3699.63" y="215.15" width="22.38" height="28.68" rx="4.11" ry="4.11"/><rect class="cls-1" x="3730.47" y="215.15" width="22.38" height="28.68" rx="4.11" ry="4.11"/><rect class="cls-1" x="3668.79" y="259.81" width="22.38" height="28.68" rx="4.11" ry="4.11"/><rect class="cls-1" x="3699.63" y="259.81" width="22.38" height="28.68" rx="4.11" ry="4.11"/><rect class="cls-1" x="3730.47" y="259.81" width="22.38" height="28.68" rx="4.11" ry="4.11"/><rect class="cls-1" x="3668.79" y="304.48" width="22.38" height="28.68" rx="4.11" ry="4.11"/><rect class="cls-1" x="3699.63" y="304.48" width="22.38" height="28.68" rx="4.11" ry="4.11"/><rect class="cls-1" x="3730.47" y="304.48" width="22.38" height="28.68" rx="4.11" ry="4.11"/><rect class="cls-1" x="3668.79" y="349.14" width="22.38" height="28.68" rx="4.11" ry="4.11"/><rect class="cls-1" x="3699.63" y="349.14" width="22.38" height="28.68" rx="4.11" ry="4.11"/><rect class="cls-1" x="3730.47" y="349.14" width="22.38" height="28.68" rx="4.11" ry="4.11"/><path class="cls-1" d="m3736.88,398.31c0-2.29-1.87-4.16-4.16-4.16h-20.37v42.51h24.53v-38.35Z"/><path class="cls-1" d="m3688.92,394.16c-2.29,0-4.16,1.87-4.16,4.16v38.35h24.53v-42.51h-20.37Z"/><path class="cls-1" d="m2726.08,181.68c-.03-1.09-1.26-1.84-2.46-1.49l-13.02,4.03c-1.21.35-2.14-.48-2.46-1.53-3.04-10.04,1.28-23.14.86-27.12-.08-.81-.87-1.44-1.81-1.46-23.43-.34-27.04,18.41-26.41,30.16-4.74.82-9.79,3.52-10.21,6.8-1.3.2-2.98.55-3.03.98-.06.48,2.01.85,3.36,1.04,1.29,2.75,5.72,4.94,9.9,5.65-.69,11.73,2.78,30.79,26.4,30.44.94-.01,1.73-.65,1.81-1.45.42-4.01-4.08-16.46-.86-27.35.31-1.04,1.22-1.87,2.43-1.54l13.7,3.97c1.22.33,2.45-.47,2.42-1.57l-.61-19.55Z"/><path class="cls-1" d="m928.82,162.68c.03-1.09,1.26-1.84,2.46-1.49l13.02,4.03c1.21.35,2.14-.48,2.46-1.53,3.04-10.04-1.28-23.14-.86-27.12.08-.81.87-1.44,1.81-1.46,23.43-.34,27.04,18.41,26.41,30.16,4.74.82,9.79,3.52,10.21,6.8,1.3.21,2.98.55,3.03.98.06.48-2.01.85-3.36,1.04-1.29,2.75-5.72,4.94-9.9,5.65.7,11.73-2.78,30.79-26.4,30.44-.94-.01-1.73-.65-1.81-1.45-.42-4.01,4.08-16.46.86-27.35-.31-1.04-1.22-1.87-2.43-1.54l-13.7,3.97c-1.22.33-2.45-.47-2.42-1.57l.61-19.55Z"/><rect class="cls-1" x="3438.93" y="148.49" width="26.72" height="27.77" rx="1.95" ry="1.95" transform="translate(3614.67 -3289.92) rotate(90)"/><rect class="cls-1" x="3438.93" y="194.27" width="26.72" height="27.77" rx="1.95" ry="1.95" transform="translate(3660.45 -3244.14) rotate(90)"/><rect class="cls-1" x="3438.93" y="240.05" width="26.72" height="27.77" rx="1.95" ry="1.95" transform="translate(3706.23 -3198.36) rotate(90)"/><rect class="cls-1" x="3438.93" y="285.84" width="26.72" height="27.77" rx="1.95" ry="1.95" transform="translate(3752.02 -3152.57) rotate(90)"/><rect class="cls-1" x="3438.93" y="331.62" width="26.72" height="27.77" rx="1.95" ry="1.95" transform="translate(3797.8 -3106.79) rotate(90)"/><rect class="cls-1" x="3490.7" y="148.49" width="26.72" height="27.77" rx="1.95" ry="1.95" transform="translate(3666.43 -3341.69) rotate(90)"/><rect class="cls-1" x="3490.7" y="194.27" width="26.72" height="27.77" rx="1.95" ry="1.95" transform="translate(3712.21 -3295.9) rotate(90)"/><rect class="cls-1" x="3490.7" y="240.05" width="26.72" height="27.77" rx="1.95" ry="1.95" transform="translate(3758 -3250.12) rotate(90)"/><rect class="cls-1" x="3490.7" y="285.84" width="26.72" height="27.77" rx="1.95" ry="1.95" transform="translate(3803.78 -3204.33) rotate(90)"/><rect class="cls-1" x="3490.7" y="331.62" width="26.72" height="27.77" rx="1.95" ry="1.95" transform="translate(3849.56 -3158.55) rotate(90)"/><rect class="cls-1" x="3561.77" y="307.37" width="17.47" height="16.14" rx="1.95" ry="1.95" transform="translate(3885.94 -3255.07) rotate(90)"/><rect class="cls-1" x="3587.65" y="307.37" width="17.47" height="16.14" rx="1.95" ry="1.95" transform="translate(3911.83 -3280.95) rotate(90)"/><rect class="cls-1" x="3561.77" y="336.86" width="17.47" height="16.14" rx="1.95" ry="1.95" transform="translate(3915.44 -3225.57) rotate(90)"/><rect class="cls-1" x="3587.65" y="336.86" width="17.47" height="16.14" rx="1.95" ry="1.95" transform="translate(3941.32 -3251.45) rotate(90)"/><rect class="cls-1" x="3561.77" y="366.36" width="17.47" height="16.14" rx="1.95" ry="1.95" transform="translate(3944.94 -3196.08) rotate(90)"/><rect class="cls-1" x="3587.65" y="366.36" width="17.47" height="16.14" rx="1.95" ry="1.95" transform="translate(3970.82 -3221.96) rotate(90)"/><path class="cls-1" d="m3495.05,386.92h-33.74c-.94,0-1.73.8-1.73,1.73v48.01h37.21v-48.01c0-.94-.79-1.73-1.73-1.73Z"/><path class="cls-1" d="m3595.76,401.91h-24.62c-.29,0-.54.25-.54.54v34.22h25.69v-34.22c0-.28-.25-.54-.54-.54Z"/><path class="cls-1" d="m882.15,305.88c.92,1.29.38,2.34-1.2,2.34h-105.93c-1.58,0-2.12-1.05-1.2-2.34l31.11-43.62c.92-1.29,2.96-2.34,4.54-2.34h37.05c1.58,0,3.62,1.05,4.54,2.34l31.11,43.62Z"/><rect class="cls-1" x="809.54" y="324.93" width="15.9" height="19.73" rx="2.28" ry="2.28"/><rect class="cls-1" x="830.51" y="324.93" width="15.9" height="19.73" rx="2.28" ry="2.28"/><rect class="cls-1" x="809.54" y="349.29" width="15.9" height="19.73" rx="2.28" ry="2.28"/><rect class="cls-1" x="830.51" y="349.29" width="15.9" height="19.73" rx="2.28" ry="2.28"/><path class="cls-1" d="m843.41,436.67h-25.53v-35.27c0-7.05,5.71-12.76,12.76-12.76s12.76,5.71,12.76,12.76v35.27Zm-5.69-25.49c-1.47,0-2.67,1.19-2.67,2.67s1.19,2.67,2.67,2.67,2.67-1.19,2.67-2.67-1.19-2.67-2.67-2.67Z"/><path class="cls-1" d="m2515.62,316.78c.48,1.5-.42,2.74-2,2.74h-105.93c-1.58,0-2.48-1.23-2-2.74l13.57-42.82c.48-1.5,2.16-2.74,3.74-2.74h75.32c1.58,0,3.26,1.23,3.74,2.74l13.57,42.82Z"/><rect class="cls-1" x="2442.22" y="333.35" width="15.9" height="15.9" rx="2.28" ry="2.28"/><rect class="cls-1" x="2463.19" y="333.35" width="15.9" height="15.9" rx="2.28" ry="2.28"/><rect class="cls-1" x="2442.22" y="353.88" width="15.9" height="15.9" rx="2.28" ry="2.28"/><rect class="cls-1" x="2463.19" y="353.88" width="15.9" height="15.9" rx="2.28" ry="2.28"/><path class="cls-1" d="m2491.71,436.67h-27.78v-38.38c0-7.67,6.22-13.89,13.89-13.89s13.89,6.22,13.89,13.89v38.38Zm-6.19-26c-1.6,0-2.9,1.3-2.9,2.9s1.3,2.9,2.9,2.9,2.9-1.3,2.9-2.9-1.3-2.9-2.9-2.9Z"/><path class="cls-1" d="m2453.46,289.76c0,1.58-1.28,2.68-2.86,2.68-6.5,0-6.5.07-13.01.07-1.58,0-2.88-1.17-2.88-2.75,0-10.2-.03-10.2-.03-20.4s-.15-10.2-.15-20.4c0-1.58,1.48-2.77,3.06-2.77,6.5,0,6.5-.1,13.01-.1,1.58,0,2.78,1.29,2.78,2.87,0,10.2.21,10.2.2,20.4,0,10.2-.12,10.2-.12,20.4Z"/><path class="cls-1" d="m1958.13,350.02c0,1.26-.84,2.28-1.87,2.28h-9.25c-1.03,0-1.87-1.03-1.87-2.28v-15.16c0-1.26.84-2.28,1.87-2.28h9.25c1.03,0,1.87,1.03,1.87,2.28v15.16Z"/><path class="cls-1" d="m1975.26,350.02c0,1.26-.84,2.28-1.87,2.28h-9.25c-1.03,0-1.87-1.03-1.87-2.28v-15.16c0-1.26.84-2.28,1.87-2.28h9.25c1.03,0,1.87,1.03,1.87,2.28v15.16Z"/><path class="cls-1" d="m1958.13,374.38c0,1.26-.84,2.28-1.87,2.28h-9.25c-1.03,0-1.87-1.03-1.87-2.28v-15.16c0-1.26.84-2.28,1.87-2.28h9.25c1.03,0,1.87,1.03,1.87,2.28v15.16Z"/><path class="cls-1" d="m1975.26,374.38c0,1.26-.84,2.28-1.87,2.28h-9.25c-1.03,0-1.87-1.03-1.87-2.28v-15.16c0-1.26.84-2.28,1.87-2.28h9.25c1.03,0,1.87,1.03,1.87,2.28v15.16Z"/><path class="cls-1" d="m1999.1,350.02c0,1.26-.84,2.28-1.87,2.28h-9.25c-1.03,0-1.87-1.03-1.87-2.28v-15.16c0-1.26.84-2.28,1.87-2.28h9.25c1.03,0,1.87,1.03,1.87,2.28v15.16Z"/><path class="cls-1" d="m2016.22,350.02c0,1.26-.84,2.28-1.87,2.28h-9.25c-1.03,0-1.87-1.03-1.87-2.28v-15.16c0-1.26.84-2.28,1.87-2.28h9.25c1.03,0,1.87,1.03,1.87,2.28v15.16Z"/><path class="cls-1" d="m1999.1,374.38c0,1.26-.84,2.28-1.87,2.28h-9.25c-1.03,0-1.87-1.03-1.87-2.28v-15.16c0-1.26.84-2.28,1.87-2.28h9.25c1.03,0,1.87,1.03,1.87,2.28v15.16Z"/><path class="cls-1" d="m2016.22,374.38c0,1.26-.84,2.28-1.87,2.28h-9.25c-1.03,0-1.87-1.03-1.87-2.28v-15.16c0-1.26.84-2.28,1.87-2.28h9.25c1.03,0,1.87,1.03,1.87,2.28v15.16Z"/><path class="cls-1" d="m2021.92,292.29c0,1.49-1.42,2.68-2.91,2.68-6.15,0-6.15.18-12.31.18-1.49,0-2.56-1.37-2.56-2.86,0-9.65-.11-9.65-.11-19.3s-.02-9.65-.02-19.3c0-1.49,1.2-2.77,2.69-2.77,6.15,0,6.15-.11,12.31-.11,1.49,0,2.61,1.39,2.61,2.88,0,9.65.21,9.65.28,19.3.07,9.65.03,9.65.03,19.3Z"/><path class="cls-1" d="m1987.04,436.67c-.54,0-.99-.44-.99-.99v-36.13c0-3.48,2.82-6.3,6.3-6.3h17.57c3.48,0,6.3,2.82,6.3,6.3v36.13c0,.54-.44.99-.99.99h-28.2Zm23.25-21.78c-1.53,0-2.77,1.24-2.77,2.77s1.24,2.77,2.77,2.77,2.77-1.24,2.77-2.77-1.24-2.77-2.77-2.77Z"/><path class="cls-1" d="m1986.25,238.95c-3.06-4.51-8.07-4.51-11.13,0l-46.91,69.09c-.89,1.31.05,3.08,1.63,3.08h101.69c1.58,0,2.52-1.77,1.63-3.08l-46.91-69.09Z"/><path class="cls-1" d="m1064.98,409.13c0,1.1-.74,2-1.63,2h-8.1c-.9,0-1.63-.9-1.63-2v-20.28c0-1.1.74-2,1.63-2h8.1c.9,0,1.63.9,1.63,2v20.28Z"/><path class="cls-1" d="m1079.98,409.13c0,1.1-.74,2-1.63,2h-8.11c-.9,0-1.63-.9-1.63-2v-20.28c0-1.1.74-2,1.63-2h8.11c.9,0,1.63.9,1.63,2v20.28Z"/><path class="cls-1" d="m1135.69,409.13c0,1.1-.74,2-1.63,2h-8.11c-.9,0-1.63-.9-1.63-2v-20.28c0-1.1.74-2,1.63-2h8.11c.9,0,1.63.9,1.63,2v20.28Z"/><path class="cls-1" d="m1150.69,409.13c0,1.1-.74,2-1.63,2h-8.11c-.9,0-1.63-.9-1.63-2v-20.28c0-1.1.74-2,1.63-2h8.11c.9,0,1.63.9,1.63,2v20.28Z"/><path class="cls-1" d="m1091.46,436.67c-.41,0-.75-.34-.75-.75v-27.38c0-2.64,2.14-4.78,4.78-4.78h13.31c2.64,0,4.78,2.14,4.78,4.78v27.38c0,.41-.34.75-.75.75h-21.37Zm17.62-16.51c-1.16,0-2.1.94-2.1,2.1s.94,2.1,2.1,2.1,2.1-.94,2.1-2.1-.94-2.1-2.1-2.1Z"/><path class="cls-1" d="m1167.25,363.69c0,7.62-6.05,13.8-13.51,13.8-6.12,0-11.24-4.19-12.9-9.89-1.66,5.7-6.77,9.89-12.9,9.89s-11.24-4.19-12.9-9.89c-1.66,5.7-6.77,9.89-12.9,9.89s-11.24-4.19-12.9-9.89c-1.66,5.7-6.77,9.89-12.9,9.89s-11.24-4.19-12.9-9.89c-1.66,5.7-6.77,9.89-12.9,9.89-7.46,0-13.52-6.18-13.52-13.8l15.73-34.87c.68-1.51,2.59-2.75,4.24-2.75h90.39c1.65,0,3.56,1.24,4.24,2.75l15.6,34.87Z"/><path class="cls-1" d="m510.57,399.21c0-1.56-1.26-2.82-2.82-2.82h-19.12c-1.58,0-2.86,1.28-2.86,2.86v37.42h24.81v-37.46Z"/><path class="cls-1" d="m526.07,241.42c1.12,1.57.46,2.85-1.47,2.85h-110.71c-1.93,0-2.59-1.28-1.47-2.85l25.59-53.29c1.12-1.57,3.61-2.85,5.54-2.85h51.38c1.93,0,4.42,1.28,5.54,2.85l25.59,53.29Zm-82.49-22.33v8.77c0,1.07,1.13,1.95,2.5,1.95h4.68v-10.72h-7.18Zm7.18-16.52c-4.04.53-7.18,4.13-7.18,8.54v4h7.18v-12.54Zm3.93,27.24h4.88c1.38,0,2.5-.88,2.5-1.95v-8.77h-7.38v10.72Zm7.38-14.69v-4c0-4.48-3.24-8.12-7.38-8.56v12.56h7.38Zm14.35,3.97v8.77c0,1.07,1.13,1.95,2.5,1.95h4.68v-10.72h-7.18Zm7.18-16.52c-4.04.53-7.18,4.13-7.18,8.54v4h7.18v-12.54Zm3.93,27.24h4.88c1.38,0,2.5-.88,2.5-1.95v-8.77h-7.38v10.72Zm7.38-14.69v-4c0-4.48-3.24-8.12-7.38-8.56v12.56h7.38Z"/><rect class="cls-1" x="429.94" y="257.9" width="14.71" height="17.05"/><rect class="cls-1" x="449.76" y="257.9" width="14.71" height="17.05"/><rect class="cls-1" x="429.94" y="279.51" width="14.71" height="17.05"/><rect class="cls-1" x="449.76" y="279.51" width="14.71" height="17.05"/><rect class="cls-1" x="476.04" y="257.9" width="14.71" height="17.05"/><rect class="cls-1" x="495.86" y="257.9" width="14.71" height="17.05"/><rect class="cls-1" x="476.04" y="279.51" width="14.71" height="17.05"/><rect class="cls-1" x="495.86" y="279.51" width="14.71" height="17.05"/><rect class="cls-1" x="429.94" y="312.18" width="14.71" height="17.05"/><rect class="cls-1" x="449.76" y="312.18" width="14.71" height="17.05"/><rect class="cls-1" x="429.94" y="333.79" width="14.71" height="17.05"/><rect class="cls-1" x="449.76" y="333.79" width="14.71" height="17.05"/><rect class="cls-1" x="476.04" y="312.18" width="14.71" height="17.05"/><rect class="cls-1" x="495.86" y="312.18" width="14.71" height="17.05"/><rect class="cls-1" x="476.04" y="333.79" width="14.71" height="17.05"/><rect class="cls-1" x="495.86" y="333.79" width="14.71" height="17.05"/><rect class="cls-1" x="1307.93" y="305.21" width="20.03" height="23.36" rx="3.06" ry="3.06"/><path class="cls-1" d="m1340.73,305.21h13.91c1.69,0,3.06,1.37,3.06,3.06v17.24c0,1.69-1.37,3.06-3.06,3.06h-13.91c-1.69,0-3.06-1.37-3.06-3.06v-17.24c0-1.69,1.37-3.06,3.06-3.06Z"/><rect class="cls-1" x="1367.4" y="305.21" width="20.03" height="23.36" rx="3.06" ry="3.06"/><rect class="cls-1" x="1307.93" y="357.97" width="20.03" height="32.57" rx="3.06" ry="3.06"/><rect class="cls-1" x="1367.4" y="357.97" width="20.03" height="32.57" rx="3.06" ry="3.06"/><path class="cls-1" d="m1332.64,409.36v27.31h13.89v-43.2c-7.77.62-13.89,7.49-13.89,15.88Z"/><path class="cls-1" d="m1362.72,409.36c0-8.39-6.12-15.26-13.89-15.88v43.2h13.89v-27.31Z"/><path class="cls-1" d="m1401.77,346.43h-108.19c-2.32,0-4.2-1.88-4.2-4.2s1.88-4.2,4.2-4.2h108.19c2.32,0,4.2,1.88,4.2,4.2s-1.88,4.2-4.2,4.2Z"/><path class="cls-1" d="m1413.13,311.83c-2.75,1.94-6.83,1.47-9.07-1.04l-52.3-58.76c-2.24-2.52-5.9-2.52-8.14,0l-52.3,58.76c-2.24,2.52-6.32,2.98-9.07,1.04l-9.09-6.42c-2.75-1.94-3.17-5.59-.93-8.11l71.39-80.21c2.24-2.52,5.9-2.52,8.14,0l71.39,80.21c2.24,2.52,1.82,6.16-.93,8.11l-9.09,6.42Z"/><rect class="cls-1" x="2676.01" y="372.4" width="24.57" height="30.32"/><rect class="cls-1" x="2810.45" y="372.4" width="24.57" height="30.32"/><rect class="cls-1" x="2648.86" y="301.8" width="213.3" height="31.01" rx="6.86" ry="6.86"/><rect class="cls-1" x="2709.26" y="364.22" width="92.51" height="17.61" rx="3.28" ry="3.28"/><path class="cls-1" d="m252.77,349.6c1.42,1.99.58,3.62-1.86,3.62H111.14c-2.45,0-3.28-1.63-1.86-3.62l34.17-51.8c1.42-1.99,4.58-3.62,7.03-3.62h61.09c2.45,0,5.61,1.63,7.03,3.62l34.17,51.8Z"/><rect class="cls-1" x="117.97" y="367.04" width="126.09" height="2.02"/><rect class="cls-1" x="119.68" y="390.07" width="122.69" height="2.03"/><rect class="cls-1" x="197.88" y="413.11" width="42.76" height="2.02"/><rect class="cls-1" x="121.41" y="413.11" width="47.75" height="2.02"/><rect class="cls-1" x="207.95" y="376.45" width="23.88" height="25.82"/><rect class="cls-1" x="130.21" y="376.45" width="23.88" height="25.82"/><path class="cls-1" d="m162.78,436.67v-47.17c0-1.93,1.58-3.51,3.51-3.51h29.48c1.93,0,3.51,1.58,3.51,3.51v47.17h-36.49Zm30.65-25.3c-1.5,0-2.71,1.21-2.71,2.71s1.21,2.71,2.71,2.71,2.71-1.21,2.71-2.71-1.21-2.71-2.71-2.71Z"/><path class="cls-1" d="m1300.72,438.02h-147.56l4.67-80.55c0-.55-.7-1.08-1.52-1.08h-108.33c-.82,0-1.52.53-1.52,1.16l4.67,80.48h-40.98l6.23-81.06,2.69.21-6.01,78.15h35.2l-4.51-77.7c0-2.21,1.89-3.94,4.22-3.94h108.33c2.33,0,4.22,1.73,4.22,3.86l-4.51,77.78h141.91l-4.55-138.63,2.7-.09,4.64,141.42Z"/><path class="cls-1" d="m896.7,438.02h-30.3l4.64-128.89c0-.79-.68-1.47-1.52-1.47h-83.08c-.84,0-1.52.68-1.52,1.52l4.64,128.85h-272.32l4.62-195.15,2.7.06-4.56,192.38h266.75l-4.54-126.1c0-2.38,1.89-4.27,4.22-4.27h83.08c2.33,0,4.22,1.89,4.22,4.22l-4.54,126.15h24.59l-6.01-78.15,2.69-.21,6.23,81.06Z"/><polygon class="cls-1" points="938.36 292.7 926.76 359.87 951.05 359.87 951.05 292.7 938.36 292.7"/><path class="cls-1" d="m917.91,292.7c-2.43,0-5.56,1.75-6.97,3.89l-28.68,59.4c-1.41,2.14-.58,3.89,1.85,3.89h8.54l26.09-67.17h-.82Z"/><polygon class="cls-1" points="955.81 292.7 955.81 359.87 980.1 359.87 968.5 292.7 955.81 292.7"/><polygon class="cls-1" points="923.85 292.7 897.76 359.87 921.92 359.87 933.52 292.7 923.85 292.7"/><polygon class="cls-1" points="973.34 292.7 984.94 359.87 1009.1 359.87 983.01 292.7 973.34 292.7"/><path class="cls-1" d="m1024.6,355.98l-28.68-59.4c-1.41-2.14-4.55-3.89-6.97-3.89h-.82l26.09,67.17h8.54c2.43,0,3.26-1.75,1.85-3.89Z"/><path class="cls-1" d="m937.35,436.67v-42.04c0-1.7,1.39-3.09,3.09-3.09h25.98c1.7,0,3.09,1.39,3.09,3.09v42.04h-32.16Zm26.6-25.12c-1.35,0-2.44,1.09-2.44,2.44s1.09,2.44,2.44,2.44,2.44-1.09,2.44-2.44-1.09-2.44-2.44-2.44Z"/><path class="cls-1" d="m989.05,387.69c0,.81-.74,1.47-1.65,1.47h-8.2c-.91,0-1.65-.66-1.65-1.47v-9.78c0-.81.74-1.47,1.65-1.47h8.2c.91,0,1.65.66,1.65,1.47v9.78Z"/><path class="cls-1" d="m1004.23,387.69c0,.81-.74,1.47-1.65,1.47h-8.2c-.91,0-1.65-.66-1.65-1.47v-9.78c0-.81.74-1.47,1.65-1.47h8.2c.91,0,1.65.66,1.65,1.47v9.78Z"/><path class="cls-1" d="m989.05,403.42c0,.81-.74,1.47-1.65,1.47h-8.2c-.91,0-1.65-.66-1.65-1.47v-9.78c0-.81.74-1.47,1.65-1.47h8.2c.91,0,1.65.66,1.65,1.47v9.78Z"/><path class="cls-1" d="m1004.23,403.42c0,.81-.74,1.47-1.65,1.47h-8.2c-.91,0-1.65-.66-1.65-1.47v-9.78c0-.81.74-1.47,1.65-1.47h8.2c.91,0,1.65.66,1.65,1.47v9.78Z"/><path class="cls-1" d="m914.14,387.69c0,.81-.74,1.47-1.65,1.47h-8.2c-.91,0-1.65-.66-1.65-1.47v-9.78c0-.81.74-1.47,1.65-1.47h8.2c.91,0,1.65.66,1.65,1.47v9.78Z"/><path class="cls-1" d="m929.31,387.69c0,.81-.74,1.47-1.65,1.47h-8.2c-.91,0-1.65-.66-1.65-1.47v-9.78c0-.81.74-1.47,1.65-1.47h8.2c.91,0,1.65.66,1.65,1.47v9.78Z"/><path class="cls-1" d="m914.14,403.42c0,.81-.74,1.47-1.65,1.47h-8.2c-.91,0-1.65-.66-1.65-1.47v-9.78c0-.81.74-1.47,1.65-1.47h8.2c.91,0,1.65.66,1.65,1.47v9.78Z"/><path class="cls-1" d="m929.31,403.42c0,.81-.74,1.47-1.65,1.47h-8.2c-.91,0-1.65-.66-1.65-1.47v-9.78c0-.81.74-1.47,1.65-1.47h8.2c.91,0,1.65.66,1.65,1.47v9.78Z"/><path class="cls-1" d="m2667.49,438.02h-168.42l4.64-128.89c0-.79-.68-1.47-1.52-1.47h-83.08c-.84,0-1.52.68-1.52,1.52l4.64,128.85h-81.2l5.49-90.22,2.69.16-5.32,87.35h75.53l-4.54-126.1c0-2.38,1.89-4.27,4.22-4.27h83.08c2.33,0,4.22,1.89,4.22,4.22l-4.54,126.15h162.77l-6.47-116.54,2.69-.15,6.63,119.39Z"/><polygon class="cls-1" points="2343.35 316.86 2178.03 316.86 2169.03 331.11 2352.35 331.11 2343.35 316.86"/><polygon class="cls-1" points="2332.65 299.9 2188.74 299.9 2179.74 314.16 2341.65 314.16 2332.65 299.9"/><path class="cls-1" d="m2361.32,345.31l-7.26-11.5h-186.73l-7.26,11.5c-1.42,2.08-.58,3.78,1.86,3.78h197.52c2.45,0,3.28-1.7,1.86-3.78Z"/><path class="cls-1" d="m2327.15,291.19c-1.42-2.08-4.58-3.78-7.03-3.78h-118.85c-2.45,0-5.61,1.7-7.03,3.78l-3.8,6.02h140.5l-3.8-6.02Z"/><rect class="cls-1" x="2201.65" y="361.9" width="22.51" height="21.37"/><rect class="cls-1" x="2249.44" y="361.9" width="22.51" height="21.37"/><rect class="cls-1" x="2297.22" y="361.9" width="22.51" height="21.37"/><rect class="cls-1" x="2201.65" y="400.83" width="22.51" height="21.37"/><rect class="cls-1" x="2249.44" y="400.83" width="22.51" height="21.37"/><path class="cls-1" d="m2323.06,436.67h-29.08v-37.41c0-2.1,1.72-3.83,3.83-3.83h21.43c2.1,0,3.83,1.72,3.83,3.83v37.41Zm-4.26-22.05c-1.2,0-2.17.97-2.17,2.17s.97,2.17,2.17,2.17,2.17-.97,2.17-2.17-.97-2.17-2.17-2.17Z"/><path class="cls-1" d="m1462.15,438.02h-67.52l4.64-141.42,2.7.09-4.55,138.63h61.9c-3.55-81.42-3.47-81.59-3.31-81.98l1.24.53,1.35.06c-.03,1.62,2.26,54.79,3.48,82.68l.06,1.41Z"/><path class="cls-1" d="m1478.5,395.85l1.14,14.53c0,1.76,1.44,3.2,3.2,3.2h5.94v-17.73h-10.28Z"/><path class="cls-1" d="m1494.67,413.57h6.08c1.76,0,3.2-1.44,3.2-3.2l1.14-14.53h-10.42v17.73Z"/><path class="cls-1" d="m1488.79,370.63c-6.37,1.38-11.14,7.04-11.14,13.83,0,.12.01.23.02.34,0,.05-.01.09-.01.14l.39,5.01h10.75v-19.32Z"/><path class="cls-1" d="m1505.56,389.96l.39-5.01s-.01-.09-.01-.14c0-.12.02-.23.02-.34,0-6.83-4.84-12.54-11.28-13.86v19.36h10.89Z"/><path class="cls-1" d="m1520.37,395.85l1.14,14.53c0,1.76,1.44,3.2,3.2,3.2h5.94v-17.73h-10.28Z"/><path class="cls-1" d="m1536.54,413.57h6.08c1.76,0,3.2-1.44,3.2-3.2l1.14-14.53h-10.42v17.73Z"/><path class="cls-1" d="m1530.65,370.63c-6.37,1.38-11.14,7.04-11.14,13.83,0,.12.01.23.02.34,0,.05-.01.09-.01.14l.39,5.01h10.75v-19.32Z"/><path class="cls-1" d="m1547.42,389.96l.39-5.01s-.01-.09-.01-.14c0-.12.02-.23.02-.34,0-6.83-4.84-12.54-11.28-13.86v19.36h10.89Z"/><path class="cls-1" d="m1630.94,356.92l-74.19-63.94c-3.12-2.69-7.59-3.12-11.17-1.07l-51.06,29.73v-24.87c0-2.1-1.72-3.83-3.83-3.83h-14.89c-2.1,0-3.83,1.72-3.83,3.83v38l-47.64,27.75c-2.39,1.37-3.21,4.41-1.85,6.79l4.71,8.22c1.37,2.39,4.41,3.21,6.79,1.85l112.22-65.45c1.83-1.05,4.12-.83,5.72.55l66.32,57.15c2.08,1.79,5.22,1.56,7.02-.52l6.18-7.17c1.79-2.08,1.56-5.22-.52-7.02Z"/><path class="cls-1" d="m1590.61,436.67h-26.68l.07-42.03c0-2.5,2.04-4.52,4.54-4.51l17.59.08c2.49.01,4.5,2.03,4.5,4.52v41.94Zm-4.02-24.16c-1.2,0-2.17.97-2.17,2.17s.97,2.17,2.17,2.17,2.17-.97,2.17-2.17-.97-2.17-2.17-2.17Z"/><path class="cls-1" d="m2180.35,438.02h-157.82l4.59-127.53h-92.87l4.77,127.53h-39.64l5.74-99.57c.05-1.77-.8-4.66-1.82-6.15l-28.89-42.43c-.93-1.37-3.21-2.57-4.87-2.57h-143.71c-1.64,0-3.84,1.22-4.71,2.61l-29.11,46.49c-.98,1.57-1.77,4.46-1.72,6.31l5.73,95.31h-88.36l.06-1.41c1.21-27.9,3.51-81.08,3.48-82.67l1.24-.02,1.36-.54c.14.36.22.54-3.32,81.94h82.67l-5.56-92.49c-.07-2.42.86-5.85,2.12-7.87l29.11-46.49c1.36-2.17,4.44-3.88,7-3.88h143.71c2.55,0,5.66,1.65,7.1,3.75l28.89,42.43c1.34,1.97,2.35,5.39,2.28,7.79l-5.57,96.76h33.98l-4.77-127.53h98.48l-4.59,127.53h152.15l-5.32-87.35,2.69-.16,5.49,90.22Z"/><path class="cls-1" d="m1729.23,392.08h-8c-1.84,0-3.34,1.5-3.34,3.34v8.79h11.34v-12.14Z"/><path class="cls-1" d="m1717.9,408.04v8.79c0,1.84,1.5,3.34,3.34,3.34h8v-12.14h-11.34Z"/><path class="cls-1" d="m1733.06,420.17h8c1.84,0,3.34-1.5,3.34-3.34v-8.79h-11.34v12.14Z"/><path class="cls-1" d="m1744.4,404.21v-8.79c0-1.84-1.5-3.34-3.34-3.34h-8v12.14h11.34Z"/><path class="cls-1" d="m1729.23,343.78c-1.73.24-3.5.8-5.28,1.76-3.78,2.05-6.06,6.1-6.06,10.4v1.09s0,0,0,0v4.74h11.34v-17.99Z"/><path class="cls-1" d="m1717.9,365.6v9.7c0,1.86,1.52,3.38,3.38,3.38h7.95v-13.09h-11.34Z"/><path class="cls-1" d="m1733.06,378.69h7.95c1.86,0,3.38-1.52,3.38-3.38v-9.7h-11.34v13.09Z"/><path class="cls-1" d="m1744.4,361.78v-4.74s0-.03-.01-.05v-.07c0-6.69-4.92-12.21-11.33-13.14v18h11.34Z"/><path class="cls-1" d="m1862.34,392.08h-8c-1.84,0-3.34,1.5-3.34,3.34v8.79h11.34v-12.14Z"/><path class="cls-1" d="m1851,408.04v8.79c0,1.84,1.5,3.34,3.34,3.34h8v-12.14h-11.34Z"/><path class="cls-1" d="m1866.17,420.17h8c1.84,0,3.34-1.5,3.34-3.34v-8.79h-11.34v12.14Z"/><path class="cls-1" d="m1877.5,404.21v-8.79c0-1.84-1.5-3.34-3.34-3.34h-8v12.14h11.34Z"/><path class="cls-1" d="m1862.34,343.78c-1.73.24-3.5.8-5.28,1.76-3.78,2.05-6.06,6.1-6.06,10.4v1.09s0,0,0,0v4.74h11.34v-17.99Z"/><path class="cls-1" d="m1851,365.6v9.7c0,1.86,1.52,3.38,3.38,3.38h7.95v-13.09h-11.34Z"/><path class="cls-1" d="m1866.17,378.69h7.95c1.86,0,3.38-1.52,3.38-3.38v-9.7h-11.34v13.09Z"/><path class="cls-1" d="m1877.5,361.78v-4.74s0-.03-.01-.05v-.07c0-6.69-4.92-12.21-11.33-13.14v18h11.34Z"/><path class="cls-1" d="m1917.36,338.8l-13.07-19.8c0-.11.03-.21.03-.31v-47.63c0-4.67-3.79-8.46-8.46-8.46s-8.46,3.79-8.46,8.46v22.35l-16.09-24.38c-1.57-2.37-4.22-3.8-7.06-3.8s-5.5,1.43-7.06,3.8l-10.69,16.2h-97.6l-10.69-16.2c-1.57-2.37-4.22-3.8-7.06-3.8s-5.5,1.43-7.06,3.8l-46.05,69.78c-2.57,3.9-1.5,9.15,2.4,11.72,3.9,2.57,9.15,1.5,11.72-2.4l38.99-59.08,38.99,59.08c1.63,2.47,4.32,3.8,7.07,3.8h41c2.75,0,5.44-1.34,7.07-3.8l38.99-59.08,38.98,59.08c2.57,3.9,7.82,4.97,11.72,2.4,3.9-2.57,4.98-7.82,2.4-11.72Z"/><path class="cls-1" d="m1784.38,436.67v-34.56c0-7.36,5.96-13.32,13.32-13.32s13.32,5.96,13.32,13.32v34.56h-26.64Zm4.61-22.35c-1.33,0-2.41,1.08-2.41,2.41s1.08,2.41,2.41,2.41,2.41-1.08,2.41-2.41-1.08-2.41-2.41-2.41Z"/><rect class="cls-1" x="3115.15" y="400.01" width="12.93" height="16.54"/><rect class="cls-1" x="3115.15" y="378.42" width="12.93" height="16.35"/><rect class="cls-1" x="3134.23" y="400.01" width="12.93" height="16.54"/><rect class="cls-1" x="3134.23" y="378.42" width="12.93" height="16.35"/><path class="cls-1" d="m3175.51,358.59c-4.71-1-8.41-4.71-9.4-9.42h9.4v9.42Z"/><path class="cls-1" d="m3175.51,344.1h-9.38c1.01-4.68,4.69-8.37,9.38-9.36v9.36Z"/><path class="cls-1" d="m3189.97,344.1h-9.38v-9.36c4.69.99,8.37,4.68,9.38,9.36Z"/><path class="cls-1" d="m3180.59,358.59v-9.42h9.4c-.99,4.71-4.69,8.42-9.4,9.42Z"/><rect class="cls-1" x="3208.94" y="400.01" width="12.93" height="16.54"/><rect class="cls-1" x="3208.94" y="378.42" width="12.93" height="16.35"/><rect class="cls-1" x="3228.02" y="400.01" width="12.93" height="16.54"/><rect class="cls-1" x="3228.02" y="378.42" width="12.93" height="16.35"/><path class="cls-1" d="m3244.53,310.32h-48.46c-1.42,0-2.74-.71-3.52-1.89l-10.81-16.34c-.79-1.2-2.18-1.93-3.68-1.93s-2.89.73-3.68,1.93l-10.81,16.34c-.78,1.18-2.11,1.89-3.52,1.89h-48.47c-1.8,0-3.41,1.14-3.99,2.85l-16.78,48.8c-.94,2.74,1.09,5.6,3.99,5.6h37.63c1.42,0,2.74-.71,3.52-1.89l42.12-63.65,42.11,63.65c.78,1.18,2.11,1.89,3.52,1.89h37.63c2.9,0,4.94-2.86,3.99-5.6l-16.78-48.8c-.59-1.71-2.19-2.85-3.99-2.85Z"/><path class="cls-1" d="m3164.73,436.67v-33.02c0-7.36,5.96-13.32,13.32-13.32s13.32,5.96,13.32,13.32v33.02h-26.64Zm5.09-23.05c-1.33,0-2.41,1.08-2.41,2.41s1.08,2.41,2.41,2.41,2.41-1.08,2.41-2.41-1.08-2.41-2.41-2.41Z"/><path class="cls-1" d="m421.25,438.02h-32.35l5.92-124.26c0-.65-.54-1.23-1.22-1.32l-117.36,36.55h-.21c-.77,0-1.39.62-1.39,1.39l5.94,87.64h-42.82l6.23-87.17c0-.74-.69-1.43-1.52-1.43h-122.88c-.84,0-1.52.68-1.52,1.52l6.22,87.08H0v-2.7h121.38l-6.02-84.28c0-2.42,1.89-4.32,4.22-4.32h122.88c2.33,0,4.22,1.89,4.22,4.22l-6.02,84.38h37.03l-5.75-84.84c0-2.27,1.71-4.06,3.86-4.18l117.42-36.56h.21c2.26,0,4.09,1.84,4.09,4.09l-5.78,121.49h26.75l-4.56-192.38,2.7-.06,4.62,195.15Z"/><path class="cls-1" d="m407.46,314.59c.76,2.41-.58,5-2.99,5.77l-136.72,43.42c-2.41.76-5-.58-5.77-2.99l-5.37-16.92c-.76-2.41.58-5,2.99-5.77l136.72-43.42c2.41-.76,5,.58,5.77,2.99l5.37,16.92Z"/><path class="cls-1" d="m303.77,331.65c.1,2.52-1.89,4.59-4.42,4.59h-10.75c-2.53,0-4.51-2.07-4.42-4.59l1.18-31.22c.1-2.52,2.24-4.59,4.77-4.59h7.69c2.53,0,4.67,2.07,4.77,4.59l1.18,31.22Z"/><rect class="cls-1" x="364.32" y="347.42" width="13.74" height="13.74"/><rect class="cls-1" x="345.42" y="347.42" width="13.74" height="13.74"/><rect class="cls-1" x="345.42" y="366.32" width="13.74" height="13.74"/><rect class="cls-1" x="364.32" y="366.32" width="13.74" height="13.74"/><rect class="cls-1" x="364.32" y="391.34" width="13.74" height="13.74"/><rect class="cls-1" x="345.42" y="391.34" width="13.74" height="13.74"/><rect class="cls-1" x="345.42" y="410.24" width="13.74" height="13.74"/><rect class="cls-1" x="364.32" y="410.24" width="13.74" height="13.74"/><path class="cls-1" d="m321.76,436.67h-27.83v-37.79c0-2.01,1.65-3.66,3.66-3.66h20.52c2.01,0,3.66,1.65,3.66,3.66v37.79Zm-22.59-21.56c-1.33,0-2.41,1.08-2.41,2.41s1.08,2.41,2.41,2.41,2.41-1.08,2.41-2.41-1.08-2.41-2.41-2.41Z"/><polygon class="cls-1" points="2891.14 438.02 2843.53 438.02 2850.16 318.63 2852.86 318.78 2846.38 435.32 2888.44 435.32 2888.44 291.8 2891.14 291.8 2891.14 438.02"/><path class="cls-1" d="m3826.77,438.02h-63.3l4.61-333.43-13.27-18.79v-12.54h-22.92v-33.16h-19.72V2.7h-2.7v37.4h-19.72v33.16h-22.92v12.54l-13.27,18.79,4.61,333.43h-37.22l.04-1.39,4.59-145.98c0-2.59-2.14-4.73-4.77-4.73h-81.75V116.29c0-3.6-2.92-7.53-6.37-8.57l-109.81-33.11c-1.53-.46-2.94-.29-3.98.48-1.04.77-1.61,2.07-1.61,3.67l4.61,359.27h-170.19l4.67-85.08c0-2.73-2.28-5.01-5.09-5.01h-39.47l-33.78-49.88-33.78,49.88h-39.47c-2.8,0-5.08,2.28-5.08,5.08l4.67,85.01h-34v-146.22h2.7v143.52h28.45l-4.51-82.23c0-4.37,3.49-7.86,7.78-7.86h38.03l35.21-51.99,35.21,51.99h38.03c4.29,0,7.78,3.49,7.78,7.78l-4.52,82.31h164.61l-4.57-356.55c0-2.49.96-4.56,2.7-5.86,1.74-1.29,4-1.61,6.37-.9l109.81,33.11c4.57,1.38,8.29,6.38,8.29,11.16v166.93h79.05c4.12,0,7.47,3.35,7.47,7.47l-4.55,144.63h31.7l-4.58-331.57,13.28-18.81v-14.38h22.92v-33.16h19.72V0h8.1v37.4h19.72v33.16h22.92v14.38l13.28,18.81v.44s-4.58,331.13-4.58,331.13h60.57v2.7Z"/><rect class="cls-1" x="2908.58" y="395.07" width="13.56" height="13.56" rx="2.62" ry="2.62" transform="translate(3317.21 -2513.5) rotate(90)"/><rect class="cls-1" x="2927.94" y="395.07" width="13.56" height="13.56" rx="2.62" ry="2.62" transform="translate(3336.58 -2532.86) rotate(90)"/><rect class="cls-1" x="2908.58" y="413.79" width="13.56" height="13.56" rx="2.62" ry="2.62" transform="translate(3335.93 -2494.78) rotate(90)"/><rect class="cls-1" x="2927.94" y="413.79" width="13.56" height="13.56" rx="2.62" ry="2.62" transform="translate(3355.29 -2514.15) rotate(90)"/><rect class="cls-1" x="2964.3" y="395.07" width="13.56" height="13.56" rx="2.62" ry="2.62" transform="translate(3372.94 -2569.23) rotate(90)"/><rect class="cls-1" x="2983.67" y="395.07" width="13.56" height="13.56" rx="2.62" ry="2.62" transform="translate(3392.3 -2588.59) rotate(90)"/><rect class="cls-1" x="2964.3" y="413.79" width="13.56" height="13.56" rx="2.62" ry="2.62" transform="translate(3391.66 -2550.51) rotate(90)"/><rect class="cls-1" x="2983.67" y="413.79" width="13.56" height="13.56" rx="2.62" ry="2.62" transform="translate(3411.02 -2569.88) rotate(90)"/><rect class="cls-1" x="2908.58" y="320.02" width="13.56" height="13.56" rx="2.62" ry="2.62" transform="translate(3242.16 -2588.55) rotate(90)"/><rect class="cls-1" x="2927.94" y="320.02" width="13.56" height="13.56" rx="2.62" ry="2.62" transform="translate(3261.52 -2607.92) rotate(90)"/><rect class="cls-1" x="2908.58" y="338.74" width="13.56" height="13.56" rx="2.62" ry="2.62" transform="translate(3260.88 -2569.84) rotate(90)"/><rect class="cls-1" x="2927.94" y="338.74" width="13.56" height="13.56" rx="2.62" ry="2.62" transform="translate(3280.24 -2589.2) rotate(90)"/><rect class="cls-1" x="2964.3" y="320.02" width="13.56" height="13.56" rx="2.62" ry="2.62" transform="translate(3297.89 -2644.28) rotate(90)"/><rect class="cls-1" x="2983.67" y="320.02" width="13.56" height="13.56" rx="2.62" ry="2.62" transform="translate(3317.25 -2663.64) rotate(90)"/><rect class="cls-1" x="2964.3" y="338.74" width="13.56" height="13.56" rx="2.62" ry="2.62" transform="translate(3316.61 -2625.56) rotate(90)"/><rect class="cls-1" x="2983.67" y="338.74" width="13.56" height="13.56" rx="2.62" ry="2.62" transform="translate(3335.97 -2644.93) rotate(90)"/><rect class="cls-1" x="3020.03" y="320.02" width="13.56" height="13.56" rx="2.62" ry="2.62" transform="translate(3353.62 -2700.01) rotate(90)"/><rect class="cls-1" x="3039.4" y="320.02" width="13.56" height="13.56" rx="2.62" ry="2.62" transform="translate(3372.98 -2719.37) rotate(90)"/><rect class="cls-1" x="3020.03" y="338.74" width="13.56" height="13.56" rx="2.62" ry="2.62" transform="translate(3372.33 -2681.29) rotate(90)"/><rect class="cls-1" x="3039.4" y="338.74" width="13.56" height="13.56" rx="2.62" ry="2.62" transform="translate(3391.7 -2700.66) rotate(90)"/><rect class="cls-1" x="2877.8" y="281.61" width="205.94" height="20.99" rx="3.54" ry="3.54" transform="translate(-13.32 216.45) rotate(-4.15)"/><rect class="cls-1" x="2884.39" y="365.07" width="192.75" height="16.43" rx="3.47" ry="3.47"/><path class="cls-1" d="m3048.9,436.67h-24.81v-39.29c0-1.25,1.02-2.27,2.27-2.27h20.27c1.25,0,2.27,1.02,2.27,2.27v39.29Zm-20.4-22.68c-1.33,0-2.41,1.08-2.41,2.41s1.08,2.41,2.41,2.41,2.41-1.08,2.41-2.41-1.08-2.41-2.41-2.41Z"/><path class="cls-1" d="m543.34,431.3c0,2.96,2.4,5.37,5.37,5.37s5.37-2.4,5.37-5.37v-1.52h-10.73v1.52Z"/><path class="cls-1" d="m608.26,429.79v1.52c0,2.96,2.4,5.37,5.37,5.37s5.37-2.4,5.37-5.37v-1.52h-10.73Z"/><path class="cls-1" d="m622,397.57c2.08,2.45,4.6,4.92,4.6,7.99v16.48c0,4.03-3.3,7.33-7.34,7.33h-76.19c-4.03,0-7.34-3.3-7.34-7.33v-16.48c0-3.07,2.28-5.41,4.6-7.99,0-.04.25-.88.65-2.27h-2.16c-2.29,0-4.15-1.86-4.15-4.15s1.86-4.15,4.15-4.15h4.61c2.47-8.35,5.51-18.61,5.51-18.61.44-1.56,1.87-2.63,3.48-2.63h57.47c1.62,0,3.04,1.07,3.48,2.63,0,0,3.04,10.26,5.51,18.61h4.61c2.29,0,4.15,1.86,4.15,4.15s-1.86,4.15-4.15,4.15h-2.16c.4,1.38.65,2.23.65,2.27Zm-73.87,13.87c-3.06,0-5.55,2.48-5.55,5.55s2.48,5.55,5.55,5.55,5.55-2.48,5.55-5.55-2.48-5.55-5.55-5.55Zm66.08,0c-3.06,0-5.55,2.48-5.55,5.55s2.48,5.55,5.55,5.55,5.55-2.48,5.55-5.55-2.48-5.55-5.55-5.55Zm-26.12,12.47v-4.27c0-.56-.45-1.01-1.01-1.01h-11.82c-.56,0-1.01.45-1.01,1.01v4.27c0,.56.45,1.01,1.01,1.01h11.82c.56,0,1.01-.45,1.01-1.01Zm25.56-29.81l-6.54-22.64h-52.01l-6.54,22.64h65.1Z"/><path class="cls-1" d="m655.97,305.8h-18.08c-1.08,0-1.98-.81-2.09-1.89l-2.81-28.35c-.06-.59.14-1.18.53-1.61s.96-.69,1.55-.69h23.7c.59,0,1.16.25,1.55.69.4.44.59,1.03.53,1.61l-2.81,28.35c-.11,1.08-1,1.89-2.09,1.89Zm-17.53-2.7h16.99l2.69-27.14h-22.36l2.69,27.14Z"/><path class="cls-1" d="m656.87,433.14l-4.11-3.42c.02-.18.05-.36.05-.54v-14.52c0-2.47-1.52-4.57-3.67-5.44v-100.32c1.64-.81,2.77-2.49,2.77-4.44h-9.95c0,1.95,1.13,3.62,2.77,4.44v100.32c-2.15.87-3.67,2.98-3.67,5.44v14.52c0,.19.04.36.05.54l-4.11,3.42c-1.43,1.19-.59,3.53,1.28,3.53h17.32c1.87,0,2.71-2.34,1.28-3.53Z"/><path class="cls-1" d="m663.76,273.51l-14.51-12.07-1.38-10.58h-1.89l-1.38,10.58-14.51,12.07c-.97.81-.4,2.38.86,2.38h31.94c1.26,0,1.83-1.58.86-2.38Z"/><path class="cls-1" d="m1670.27,433.14l-4.16-3.47c.02-.17.05-.34.05-.51v-14.52c0-2.47-1.52-4.57-3.67-5.44v-100.32c1.64-.81,2.77-2.49,2.77-4.44h-9.95c0,1.95,1.13,3.62,2.77,4.44v100.32c-2.15.87-3.67,2.98-3.67,5.44v14.52c0,.18.04.34.05.51l-4.16,3.47c-1.44,1.19-.59,3.53,1.28,3.53h17.43c1.87,0,2.71-2.34,1.28-3.53Z"/><path class="cls-1" d="m1660.28,306.63c-8.8,0-15.96-7.16-15.96-15.95,0-2.59.61-5.07,1.81-7.38l.38-.73h27.52l.38.73c1.2,2.31,1.82,4.79,1.82,7.38,0,8.8-7.16,15.95-15.96,15.95Zm-12.1-21.36c-.77,1.71-1.16,3.52-1.16,5.4,0,7.31,5.95,13.25,13.26,13.25s13.26-5.95,13.26-13.25c0-1.88-.39-3.69-1.16-5.4h-24.2Z"/><path class="cls-1" d="m1677.11,284.47l-15.48-12.88-.36-3.56c-.05-.47-.41-.85-.9-.9-.55-.06-1.04.35-1.1.9l-.36,3.56-15.48,12.88c-.97.81-.4,2.38.86,2.38h31.94c1.26,0,1.83-1.58.86-2.38Z"/><path class="cls-1" d="m2389.55,305.8h-18.08c-1.08,0-1.97-.81-2.09-1.88l-2.81-28.36c-.06-.58.13-1.17.53-1.61.4-.44.97-.69,1.56-.69h23.7c.59,0,1.16.25,1.56.69.4.44.59,1.03.53,1.62l-2.81,28.34c-.11,1.08-1,1.89-2.09,1.89Zm-17.53-2.7h16.99l2.69-27.14h-22.36l2.69,27.14Z"/><path class="cls-1" d="m2390.45,433.14l-4.11-3.42c.02-.18.05-.36.05-.54v-14.52c0-2.47-1.52-4.57-3.67-5.44v-100.32c1.64-.81,2.77-2.49,2.77-4.44h-9.95c0,1.95,1.13,3.62,2.77,4.44v100.32c-2.15.87-3.67,2.98-3.67,5.44v14.52c0,.19.04.36.05.54l-4.11,3.42c-1.43,1.19-.59,3.53,1.28,3.53h17.32c1.87,0,2.71-2.34,1.28-3.53Z"/><path class="cls-1" d="m2397.35,273.51l-14.51-12.07-1.38-10.58h-1.89l-1.38,10.58-14.51,12.07c-.97.81-.4,2.38.86,2.38h31.94c1.26,0,1.83-1.58.86-2.38Z"/><path class="cls-1" d="m3297.06,433.14l-4.16-3.47c.02-.17.05-.34.05-.51v-14.52c0-2.47-1.52-4.57-3.67-5.44v-100.32c1.64-.81,2.77-2.49,2.77-4.44h-9.95c0,1.95,1.13,3.62,2.77,4.44v100.32c-2.15.87-3.67,2.98-3.67,5.44v14.52c0,.18.04.34.05.51l-4.16,3.47c-1.44,1.19-.59,3.53,1.28,3.53h17.43c1.87,0,2.71-2.34,1.28-3.53Z"/><path class="cls-1" d="m3287.07,306.63c-8.8,0-15.95-7.16-15.95-15.95,0-2.59.61-5.07,1.81-7.38l.38-.73h27.52l.38.73c1.2,2.31,1.81,4.79,1.81,7.38,0,8.8-7.16,15.95-15.96,15.95Zm-12.1-21.36c-.77,1.71-1.16,3.52-1.16,5.4,0,7.31,5.95,13.25,13.25,13.25s13.26-5.95,13.26-13.25c0-1.88-.39-3.69-1.16-5.4h-24.2Z"/><path class="cls-1" d="m3303.9,284.47l-15.48-12.88-.36-3.56c-.05-.47-.41-.85-.9-.9-.55-.06-1.04.35-1.1.9l-.36,3.56-15.48,12.88c-.97.81-.4,2.38.86,2.38h31.94c1.26,0,1.83-1.58.86-2.38Z"/><path class="cls-1" d="m2595.56,437.16c-2-5.12-2.82-10.18-3.36-14.46l-.11-1c-.45-4.32-.91-8.79-1.24-13.2-.39-4.64-.71-9.41-.95-14.17-.22-4.13-.35-8.45-.39-12.85h-9.77c-.04,4.39-.17,8.71-.39,12.86-.25,4.86-.57,9.63-.96,14.18-.33,4.39-.79,8.86-1.24,13.19l-.1.98c-.54,4.31-1.36,9.37-3.36,14.49l-2.52-.99c1.9-4.84,2.68-9.7,3.2-13.81l.1-.95c.45-4.3.91-8.75,1.24-13.12.39-4.53.71-9.27.96-14.1.24-4.52.37-9.26.39-14.07v-1.34h15.15v1.34c.03,4.83.16,9.56.4,14.07.24,4.73.56,9.48.95,14.1.33,4.38.79,8.83,1.24,13.13l.1.98c.51,4.09,1.3,8.94,3.19,13.78l-2.52.99Z"/><path class="cls-1" d="m2635.7,333.9c0,4.78-.63,9.33-1.69,13.76-1.1,4.61.18,10.41-1.93,14.48-2.17,4.19-6.62,7.42-9.69,10.85-3.13,3.49-6.78,6.92-10.67,9.43-3.9,2.52-8.01,6.21-12.5,7.55-4.38,1.31-9.83-2.77-14.6-2.77s-9.56,1.87-13.94.56c-4.49-1.34-9.42-2.55-13.33-5.08-3.89-2.51-8.92-4.81-12.05-8.3-3.07-3.43-4.45-8.83-6.62-13.02-2.11-4.06-5.72-8.27-6.82-12.88-1.06-4.42.62-9.79.62-14.57s.8-9.55,1.86-13.97c1.1-4.61,2.11-9.48,4.21-13.54,2.17-4.19,4.29-8.98,7.36-12.41,3.13-3.49,6.76-7.57,10.65-10.08,3.9-2.52,10.51.43,15-.91,4.38-1.31,8.3-1.36,13.07-1.36s9.04-1.15,13.42.16c4.49,1.34,7.72,4.26,11.62,6.79,3.89,2.51,9.42,2.91,12.55,6.4,3.07,3.43,3.61,8.61,5.78,12.8,2.11,4.06,3.83,8.01,4.94,12.62,1.06,4.42,2.76,8.72,2.76,13.5Z"/><path class="cls-1" d="m1235.31,437.16c-2.01-5.11-2.82-10.18-3.36-14.46l-.09-.89c-.45-4.36-.92-8.87-1.26-13.31-.39-4.59-.71-9.36-.96-14.17-.22-4.14-.35-8.46-.39-12.85h-9.77c-.04,4.4-.17,8.72-.39,12.86-.24,4.77-.57,9.54-.96,14.18-.34,4.47-.81,9.01-1.27,13.41l-.08.75c-.54,4.31-1.36,9.38-3.36,14.49l-2.51-.99c1.89-4.84,2.68-9.7,3.19-13.81l.08-.72c.45-4.38.92-8.9,1.26-13.35.39-4.62.71-9.36.95-14.1.24-4.52.37-9.25.39-14.07v-1.34h15.15v1.34c.03,4.81.16,9.54.4,14.07.24,4.79.57,9.53.95,14.1.33,4.42.8,8.91,1.25,13.25l.09.86c.51,4.09,1.3,8.95,3.19,13.78l-2.51.99Z"/><path class="cls-1" d="m1274.46,341.45c1.6-3.76,2.08-7.78,1.08-11.81-.99-4.03-2.29-8.58-5.46-11.16-3.01-2.46-7.59-3.61-11.77-4.37-3.2-.58-6.93-1.19-10.5-.77.19-1.05.31-2.12.31-3.22,0-4.15-.16-8.88-2.61-12.15-2.33-3.11-6.52-5.32-10.39-7.06-3.52-1.58-7.77-3.41-12.04-3.41s-8.59,1.67-12.11,3.25c-3.87,1.74-7.06,4.8-9.4,7.91-2.45,3.27-2.75,7.31-2.75,11.47,0,1.34-.05,2.74-.05,4.12-3.03-.09-6.08.37-8.75.91-4.16.84-7.95,3.12-10.91,5.64-3.12,2.65-4.31,6.52-5.22,10.57-.92,4.05-2.47,8.48-.8,12.22,1.59,3.55,5.06,6.7,8.45,9.25,1.7,1.28,3.69,2.37,5.81,3.27-2.57,1.73-4.76,3.98-6.48,6.27-2.45,3.27-2.75,7.31-2.75,11.47s-.55,8.83,1.91,12.1c2.33,3.11,6.43,5.42,10.3,7.15,3.52,1.58,7.79,2.43,12.06,2.43s8.84-.18,12.36-1.76c3.87-1.74,6.47-5.61,8.81-8.72.4-.53.72-1.09,1.06-1.65.29.91.69,1.76,1.27,2.54,2.33,3.11,6.43,5.42,10.3,7.15,3.52,1.58,7.79,2.43,12.06,2.43s8.84-.18,12.36-1.76c3.87-1.74,6.47-5.61,8.81-8.72,2.45-3.27,3.88-7.05,3.88-11.21s-.16-8.88-2.61-12.15c-2.08-2.77-5.62-4.83-9.11-6.47,2.39-.81,4.65-1.79,6.43-3.19,3.34-2.61,4.95-6.98,6.47-10.56Z"/><path class="cls-1" d="m2106.24,437.16c-2-5.12-2.82-10.18-3.36-14.46l-.11-1c-.45-4.32-.91-8.79-1.24-13.2-.39-4.61-.71-9.38-.96-14.17-.22-4.14-.35-8.46-.39-12.85h-9.77c-.04,4.39-.17,8.71-.39,12.86-.25,4.79-.57,9.56-.96,14.18-.33,4.39-.79,8.86-1.24,13.19l-.1.98c-.54,4.31-1.36,9.37-3.36,14.49l-2.52-.99c1.9-4.84,2.68-9.7,3.2-13.81l.1-.95c.45-4.3.91-8.75,1.24-13.12.39-4.6.71-9.34.96-14.1.24-4.52.37-9.26.39-14.07v-1.34h15.15v1.34c.03,4.81.16,9.55.4,14.07.25,4.76.57,9.5.95,14.1.33,4.38.79,8.83,1.24,13.13l.1.98c.51,4.09,1.3,8.94,3.19,13.78l-2.52.99Z"/><path class="cls-1" d="m2146.44,337.86c0,5.54-.93,10.79-2.55,15.78-1.68,5.18-2.04,11.44-5.18,15.75-3.17,4.35-8.37,7.52-12.72,10.68-4.31,3.13-9.31,5.9-14.49,7.58-5,1.62-10.65,3.83-16.18,3.83s-10.39-4.68-15.38-6.3c-5.18-1.68-10.76-2.28-15.07-5.41-4.36-3.17-8.94-6.64-12.11-10.99-3.14-4.31-6.97-9.1-8.65-14.28-1.62-5-1.08-11.1-1.08-16.64,0-4.67.06-10.91,2.39-16.5,1.92-4.62,6.22-8.81,9.15-13.64,2.73-4.49,5.95-8.94,9.13-13.3,3.23-4.44,6.13-9.15,9.39-13.15,3.72-4.55,6.76-9.27,9.9-12.8,6.4-7.17,4.3-12.95,12.34-12.94,8.05,0,3.11,8.31,9.52,15.49,3.15,3.53,6.34,7.89,10.05,12.44,3.26,3.99,7.68,7.35,10.91,11.78,3.18,4.37,5.32,9.34,8.05,13.83,2.93,4.83,7.8,8.37,9.72,12.99,2.32,5.59,2.88,11.14,2.88,15.8Z"/><path class="cls-1" d="m726.72,437.16c-2.01-5.11-2.82-10.18-3.36-14.46l-.09-.89c-.45-4.36-.92-8.87-1.26-13.31-.39-4.59-.71-9.36-.96-14.17-.22-4.13-.35-8.45-.39-12.85h-9.77c-.04,4.4-.17,8.72-.39,12.86-.25,4.81-.57,9.58-.96,14.18-.34,4.47-.81,9.01-1.27,13.41l-.08.75c-.54,4.31-1.36,9.38-3.36,14.49l-2.51-.99c1.89-4.84,2.68-9.7,3.19-13.81l.08-.72c.45-4.38.92-8.9,1.26-13.35.39-4.58.71-9.32.95-14.1.24-4.52.37-9.25.39-14.07v-1.34h15.15v1.34c.03,4.82.16,9.56.4,14.07.24,4.79.57,9.53.95,14.1.33,4.42.8,8.91,1.25,13.25l.09.86c.51,4.09,1.3,8.95,3.19,13.78l-2.51.99Z"/><path class="cls-1" d="m768.68,340.44c-1.73-3.17-5.55-5.53-8.57-7.38-.71-.43-1.46-.9-2.26-1.35.72-1.42,1.36-2.9,2.07-4.19,1.65-3.02,2.61-6.41,2.61-10.14s.95-8.15-.7-11.18c-1.73-3.17-5.55-5.53-8.57-7.38-2.97-1.83-6.83-4.21-10.53-4.21-2.35,0-4.81.88-7.06,1.98.19-3.11.51-6.38-.79-8.77-1.73-3.17-5.55-5.53-8.57-7.38-2.97-1.83-6.83-4.21-10.53-4.21s-7.69,2.17-10.66,3.99c-3.01,1.85-5.32,5.18-7.05,8.35-1.41,2.59-1.15,5.67-1.04,8.84-2.52-1.45-5.41-2.81-8.2-2.81-3.7,0-7.69,2.17-10.66,3.99-3.01,1.85-5.32,5.18-7.05,8.35-1.65,3.02-1.01,6.7-1.01,10.42s-1.91,8.09-.26,11.11c.7,1.28,1.73,2.45,2.9,3.51-.49.28-.97.57-1.42.84-3.01,1.85-5.32,5.18-7.05,8.35-1.65,3.02-1.01,6.7-1.01,10.42s-1.91,8.09-.26,11.11c1.73,3.17,5.41,5.64,8.43,7.49,2.97,1.83,6.86,2.86,10.56,2.86.14,0,.29,0,.44,0,.03.87.07,1.75.07,2.64,0,3.72-1.91,8.09-.26,11.11,1.73,3.17,5.41,5.64,8.43,7.49,2.97,1.83,6.86,2.86,10.56,2.86s8.12-.17,11.09-1.99c1.38-.85,2.4-2.21,3.28-3.74,1.38,1.09,2.87,2.05,4.22,2.88,2.97,1.83,6.86,2.86,10.56,2.86s8.12-.17,11.09-1.99c3.01-1.85,4.37-6.16,6.1-9.33,1.65-3.02,2.61-6.41,2.61-10.14,0-.85.05-1.74.11-2.64,3.55-.02,7.62-.27,10.41-1.99,3.01-1.85,4.37-6.16,6.1-9.33,1.65-3.02,2.61-6.41,2.61-10.14s.95-8.15-.7-11.18Z"/><path class="cls-1" d="m67.05,438.02h-28.35l.72-1.84c1.89-4.84,2.68-9.7,3.19-13.81l.08-.73c.45-4.38.93-8.9,1.26-13.34.39-4.62.71-9.36.95-14.1.24-4.53.37-9.26.39-14.07v-1.34h15.15v1.34c.02,4.82.16,9.55.4,14.07.24,4.73.56,9.48.95,14.1.34,4.45.81,8.98,1.26,13.35l.08.76c.51,4.09,1.3,8.95,3.19,13.78l.72,1.84Zm-24.44-2.7h20.53c-1.52-4.48-2.21-8.85-2.69-12.62l-.08-.79c-.46-4.4-.93-8.94-1.27-13.42-.39-4.64-.71-9.41-.96-14.17-.22-4.14-.35-8.46-.39-12.85h-9.77c-.04,4.39-.17,8.71-.39,12.86-.25,4.77-.57,9.54-.96,14.18-.34,4.47-.81,9.01-1.27,13.41l-.08.76c-.48,3.79-1.17,8.17-2.69,12.65Z"/><path class="cls-1" d="m103.95,333.9c0,4.08-.48,7.99-1.26,11.82-.81,3.98,1,9.02-.56,12.62-1.6,3.71-5.38,6.67-7.67,9.87-2.34,3.27-5.03,6.6-7.99,9.23-2.99,2.67-5.74,6.58-9.25,8.47-3.5,1.89-9.1-1.14-12.99-.15-3.8.97-7.28,4.01-11.36,4.01s-8.44.44-12.24-.53c-3.9-.99-8.72-1.24-12.22-3.12-3.5-1.89-6.08-6.08-9.07-8.74-2.95-2.63-7.37-4.7-9.71-7.98-2.29-3.21-2.46-8.19-4.06-11.9-1.56-3.61-2.6-7.62-3.41-11.6-.78-3.83-1.98-7.92-1.98-12.01s-.53-8.53.25-12.36c.81-3.98,1.49-8.55,3.05-12.15,1.6-3.71,8.4-4.55,10.69-7.76,2.34-3.27,5.02-5.44,7.98-8.08,2.99-2.67,4.84-6.16,8.34-8.05,3.5-1.89,7.26-2,11.16-2.99,3.8-.97,7.15-4.74,11.23-4.74s7.63,2.98,11.43,3.95c3.9.99,7.35,2.11,10.85,3.99,3.5,1.89,6,4.57,8.99,7.24,2.95,2.63,6.54,4.37,8.88,7.64,2.29,3.21,5.5,6,7.11,9.71,1.56,3.61,4.46,7.23,5.27,11.21.78,3.83-1.45,8.29-1.45,12.37Z"/><path class="cls-1" d="m3365.7,437.16c-2-5.12-2.82-10.18-3.36-14.46l-.11-1c-.45-4.32-.91-8.79-1.24-13.2-.39-4.61-.71-9.38-.96-14.17-.22-4.14-.35-8.46-.39-12.85h-9.77c-.04,4.39-.17,8.71-.39,12.86-.25,4.79-.57,9.56-.96,14.18-.33,4.39-.79,8.86-1.24,13.19l-.1.98c-.54,4.31-1.36,9.37-3.36,14.49l-2.52-.99c1.9-4.84,2.68-9.7,3.2-13.81l.1-.95c.45-4.3.91-8.75,1.24-13.12.39-4.6.71-9.34.96-14.1.24-4.52.37-9.26.39-14.07v-1.34h15.15v1.34c.03,4.81.16,9.55.4,14.07.25,4.76.57,9.5.95,14.1.33,4.38.79,8.83,1.24,13.13l.1.98c.51,4.09,1.3,8.94,3.19,13.78l-2.52.99Z"/><path class="cls-1" d="m3405.83,333.9c0,5.76-.88,11.22-2.4,16.44-1.59,5.48-1.18,12.27-4.18,16.87-3.09,4.74-8.62,8.18-12.91,11.67-4.35,3.53-9.46,6.72-14.73,8.63-5.16,1.87-11.12,4.59-16.86,4.59s-10.59-5.8-15.74-7.67c-5.27-1.91-11.21-2.38-15.55-5.91-4.29-3.49-9.01-7.27-12.11-12.01-3-4.6-7.04-9.7-8.64-15.17-1.52-5.22-.51-11.66-.51-17.42s-.98-12.19.54-17.41c1.59-5.48,6.29-10.15,9.28-14.74,3.09-4.74,7.16-8.95,11.45-12.44,4.35-3.53,9.13-7.16,14.4-9.07,5.16-1.87,11.14-3.96,16.88-3.96s12.31.47,17.47,2.34c5.27,1.91,7.55,9.51,11.9,13.04,4.29,3.49,7.08,7.42,10.17,12.16,3,4.6,6.72,8.4,8.31,13.88,1.52,5.22,3.23,10.44,3.23,16.2Z"/><polygon class="cls-1" points="2794.8 438.02 2716.22 438.02 2716.22 375.82 2718.92 375.82 2718.92 435.32 2792.1 435.32 2792.1 375.82 2794.8 375.82 2794.8 438.02"/><rect class="cls-1" x="2754.16" y="375.82" width="2.7" height="60.85"/><polygon class="cls-1" points="2331.9 170.9 2326.8 179.5 2281.87 179.5 2276.76 170.9 2331.9 170.9"/><polygon class="cls-1" points="2315.93 222.02 2292.73 222.02 2290.33 199.54 2318.34 199.54 2315.93 222.02"/><rect class="cls-1" x="2286.51" y="176.27" width="1.57" height="25.79" transform="translate(97.13 875.24) rotate(-22.12)"/><rect class="cls-1" x="2308.47" y="188.38" width="25.79" height="1.57" transform="translate(1270.68 2267.77) rotate(-67.84)"/><rect class="cls-1" x="2300.87" y="188.38" width="24.29" height="1.58" transform="translate(1709.39 2430.03) rotate(-79.6)"/><rect class="cls-1" x="2294.86" y="177.02" width="1.58" height="24.29" transform="translate(3.66 418.47) rotate(-10.42)"/><rect class="cls-1" x="2303.55" y="177.22" width="1.57" height="23.89"/><path class="cls-1" d="m2277.45,171.4c-27.92-16.39-45.08-47.56-45.08-65.32,0-42.54,32.22-68.59,71.97-68.59s71.97,26.06,71.97,68.59c0,17.75-17.16,48.93-45.08,65.32h-53.77Zm26.88-133.91c-29.42,0-51.48,26.06-51.48,68.59,0,17.75,10.5,48.93,31.17,65.32h8.72c-10.62-16.39-12.21-47.56-12.21-65.32,0-42.54,8.68-68.59,23.8-68.59h0Zm0,0c15.12,0,23.8,26.06,23.8,68.59,0,17.75-1.58,48.93-12.21,65.32h8.72c20.67-16.39,31.17-47.56,31.17-65.32,0-42.54-22.06-68.59-51.48-68.59h0Z"/></svg>